<?xml version="1.0" standalone="no"?>
<!DOCTYPE svg PUBLIC "-//W3C//DTD SVG 20010904//EN"
 "http://www.w3.org/TR/2001/REC-SVG-20010904/DTD/svg10.dtd">
<svg version="1.0" xmlns="http://www.w3.org/2000/svg"
 width="260.000000pt" height="260.000000pt" viewBox="0 0 260.000000 260.000000"
 preserveAspectRatio="xMidYMid meet">
<metadata>
Created by potrace 1.11, written by Peter Selinger 2001-2013
</metadata>
<g transform="translate(0.000000,260.000000) scale(0.100000,-0.100000)"
fill="#000000" stroke="none">
<path d="M731 2241 c-254 -170 -464 -311 -467 -313 -2 -3 290 -5 650 -5 l654
-1 -23 42 c-13 22 -83 142 -156 266 -73 124 -143 244 -156 267 -14 24 -28 45
-32 47 -4 3 -216 -134 -470 -303z"/>
<path d="M1330 2493 c0 -5 4 -13 9 -18 5 -6 18 -26 29 -45 10 -19 72 -125 137
-235 65 -110 163 -276 218 -370 55 -93 130 -222 168 -285 37 -63 71 -123 74
-132 4 -10 10 -18 14 -18 5 0 157 250 226 372 6 10 41 70 78 134 38 64 67 117
65 118 -2 0 -32 15 -68 33 -36 17 -168 81 -295 141 -126 60 -297 142 -380 182
-82 39 -175 83 -205 97 -30 15 -58 28 -62 30 -5 2 -8 0 -8 -4z"/>
<path d="M2348 1846 c-7 -15 -98 -171 -203 -348 -104 -177 -194 -330 -200
-340 -5 -9 -37 -63 -70 -119 -33 -57 -71 -121 -83 -143 -13 -23 -37 -62 -53
-88 l-29 -48 371 0 370 0 -6 88 c-3 48 -8 114 -10 147 -2 33 -6 92 -9 130 -3
39 -8 106 -11 150 -3 44 -8 103 -10 130 -8 100 -15 202 -21 280 -14 203 -14
203 -36 161z"/>
<path d="M155 1753 c3 -49 7 -113 9 -143 3 -30 8 -93 11 -140 3 -47 8 -105 10
-130 2 -25 7 -88 10 -140 20 -306 33 -461 39 -468 2 -2 10 8 18 22 7 14 63
109 123 212 61 102 121 205 135 229 14 23 43 74 65 111 22 38 44 77 50 87 5 9
67 114 137 232 l127 215 -370 0 -369 0 5 -87z"/>
<path d="M545 1093 c-38 -65 -112 -190 -163 -278 -52 -88 -103 -174 -113 -191
-22 -37 -21 -38 66 -79 33 -15 220 -104 415 -198 195 -93 391 -187 435 -207
44 -21 81 -37 83 -36 1 2 -61 110 -138 241 -77 130 -140 241 -140 246 0 5 -4
9 -10 9 -5 0 -10 4 -10 10 0 5 -26 53 -58 107 -117 195 -184 311 -252 431 -19
34 -37 62 -40 62 -3 0 -37 -53 -75 -117z"/>
<path d="M1045 651 c58 -107 352 -595 359 -596 11 0 925 608 926 616 0 4 -292
6 -649 6 l-650 0 14 -26z"/>
</g>
</svg>
